<?xml version="1.0" encoding="UTF-8" standalone="no"?>
<svg
   xmlns:dc="http://purl.org/dc/elements/1.1/"
   xmlns:cc="http://creativecommons.org/ns#"
   xmlns:rdf="http://www.w3.org/1999/02/22-rdf-syntax-ns#"
   xmlns:svg="http://www.w3.org/2000/svg"
   xmlns="http://www.w3.org/2000/svg"
   xmlns:sodipodi="http://sodipodi.sourceforge.net/DTD/sodipodi-0.dtd"
   xmlns:inkscape="http://www.inkscape.org/namespaces/inkscape"
   width="170.89899mm"
   height="26.151585mm"
   viewBox="0 0 170.89899 26.151585"
   version="1.1"
   id="svg8"
   inkscape:version="1.0.2 (e86c870879, 2021-01-15)"
   sodipodi:docname="infrarun.svg">
  <defs
     id="defs2" />
  <sodipodi:namedview
     id="base"
     pagecolor="#ffffff"
     bordercolor="#666666"
     borderopacity="1.0"
     inkscape:pageopacity="0.0"
     inkscape:pageshadow="2"
     inkscape:zoom="2.8"
     inkscape:cx="407.88725"
     inkscape:cy="-48.792895"
     inkscape:document-units="mm"
     inkscape:current-layer="layer1"
     inkscape:document-rotation="0"
     showgrid="false"
     showguides="true"
     inkscape:guide-bbox="true"
     inkscape:pagecheckerboard="true"
     fit-margin-top="0"
     fit-margin-left="0"
     fit-margin-right="0"
     fit-margin-bottom="0"
     inkscape:window-width="3440"
     inkscape:window-height="1376"
     inkscape:window-x="0"
     inkscape:window-y="27"
     inkscape:window-maximized="1">
    <sodipodi:guide
       position="50.923408,26.326486"
       orientation="0,-1"
       id="guide955" />
    <sodipodi:guide
       position="60.277843,0.13407545"
       orientation="0,-1"
       id="guide957" />
  </sodipodi:namedview>
  <metadata
     id="metadata5">
    <rdf:RDF>
      <cc:Work
         rdf:about="">
        <dc:format>image/svg+xml</dc:format>
        <dc:type
           rdf:resource="http://purl.org/dc/dcmitype/StillImage" />
        <dc:title></dc:title>
      </cc:Work>
    </rdf:RDF>
  </metadata>
  <g
     inkscape:label="Layer 1"
     inkscape:groupmode="layer"
     id="layer1"
     transform="translate(-23.644788,-47.748871)">
    <path
       id="path944"
       style="stroke-width:0.069278;fill:#eeeeec"
       d="M 301.55664 0 C 295.3187 0 290.39905 2.4158422 286.79688 7.2480469 C 283.19469 11.992404 281.39453 18.581231 281.39453 27.015625 L 281.39453 28.861328 L 271.9043 28.861328 L 271.9043 35.978516 L 281.39453 35.978516 L 281.39453 97.523438 L 290.35547 97.523438 L 290.35547 35.978516 L 309.33203 35.978516 L 309.33203 28.861328 L 290.35547 28.861328 L 290.35547 26.751953 C 290.35547 20.601869 291.45394 15.903102 293.65039 12.652344 C 295.84685 9.4015855 299.05429 7.7753906 303.27148 7.7753906 C 305.11651 7.7753906 306.91666 8.0392547 308.67383 8.5664062 C 310.51885 9.093558 312.05709 9.8402006 313.28711 10.806641 L 316.05469 4.3496094 C 314.20966 3.0317384 312.01274 1.9762744 309.46484 1.1855469 C 306.91695 0.39481927 304.28025 0 301.55664 0 z M 0 0.6015625 L 0 27.205078 L 124.14648 27.205078 L 124.14648 0.6015625 L 0 0.6015625 z M 173.19727 1.3183594 L 173.19727 14.496094 L 182.1582 14.496094 L 182.1582 1.3183594 L 173.19727 1.3183594 z M 110.8457 7.2519531 C 112.69312 7.2519531 114.26345 7.9001764 115.55664 9.1933594 C 116.84983 10.486555 117.49609 12.056886 117.49609 13.904297 C 117.49609 15.751717 116.84983 17.322046 115.55664 18.615234 C 114.26345 19.908427 112.69312 20.554688 110.8457 20.554688 C 108.99829 20.554688 107.42796 19.908427 106.13477 18.615234 C 104.84158 17.322046 104.19336 15.751717 104.19336 13.904297 C 104.19336 12.056886 104.84158 10.486555 106.13477 9.1933594 C 107.42796 7.9001764 108.99829 7.2519531 110.8457 7.2519531 z M 8.8671875 9.46875 L 79.808594 9.46875 L 79.808594 18.337891 L 8.8671875 18.337891 L 8.8671875 9.46875 z M 239.22266 27.675781 C 233.07257 27.675781 227.36134 29.212072 222.08984 32.287109 C 216.9062 35.362155 212.90912 39.404185 210.09766 44.412109 L 210.09766 28.861328 L 201.92578 28.861328 L 201.92578 97.523438 L 210.88867 97.523438 L 210.88867 55.482422 C 211.6794 52.670952 212.95182 50.079206 214.70898 47.707031 C 216.46615 45.247001 218.44418 43.138026 220.64062 41.380859 C 222.92494 39.623693 225.38378 38.261361 228.01953 37.294922 C 230.65528 36.328474 233.29198 35.845703 235.92773 35.845703 C 240.93566 35.845703 244.62586 37.690806 246.99805 41.380859 C 249.45808 45.070913 250.6875 51.001057 250.6875 59.171875 L 250.6875 97.523438 L 259.64844 97.523438 L 259.64844 57.328125 C 259.64844 52.847352 259.2986 48.762319 258.5957 45.072266 C 257.89283 41.38222 256.74942 38.262738 255.16797 35.714844 C 253.58652 33.166949 251.47755 31.18893 248.8418 29.783203 C 246.20605 28.377468 243.00057 27.675781 239.22266 27.675781 z M 391.69922 27.675781 C 383.35267 27.675781 374.74283 30.662355 365.86914 36.636719 L 369.0332 42.566406 C 372.81111 39.930656 376.54433 37.911595 380.23438 36.505859 C 383.92441 35.100124 387.52668 34.396484 391.04102 34.396484 C 397.10324 34.396484 401.84697 36.196639 405.27344 39.798828 C 408.69992 43.313162 410.41406 48.101836 410.41406 54.164062 L 410.41406 60.359375 C 407.60259 59.217191 404.39516 58.337639 400.79297 57.722656 C 397.19078 57.107674 393.63347 56.800781 390.11914 56.800781 C 385.90194 56.800781 382.03582 57.328511 378.52148 58.382812 C 375.00715 59.349252 371.97563 60.754587 369.42773 62.599609 C 366.87984 64.44464 364.90378 66.639614 363.49805 69.1875 C 362.09232 71.735394 361.38867 74.503052 361.38867 77.490234 C 361.38867 80.477416 361.95941 83.290031 363.10156 85.925781 C 364.24372 88.473676 365.82496 90.713598 367.8457 92.646484 C 369.9543 94.579363 372.37014 96.117606 375.09375 97.259766 C 377.90521 98.314069 380.93674 98.839844 384.1875 98.839844 C 389.72258 98.839844 394.86307 97.743338 399.60742 95.546875 C 404.43963 93.350421 408.43671 90.185982 411.59961 86.056641 L 411.86328 91.460938 C 411.95115 93.481678 412.60983 95.062919 413.83984 96.205078 C 415.15771 97.347237 416.95982 97.917969 419.24414 97.917969 C 420.03487 97.917969 421.17633 97.787011 422.66992 97.523438 L 422.66992 89.615234 C 420.47346 89.615234 419.375 88.38582 419.375 85.925781 L 419.375 54.955078 C 419.375 46.43282 416.9142 39.756041 411.99414 34.923828 C 407.07407 30.091623 400.30933 27.675781 391.69922 27.675781 z M 625.49023 27.675781 C 619.34015 27.675781 613.62892 29.212072 608.35742 32.287109 C 603.17379 35.362155 599.1767 39.404185 596.36523 44.412109 L 596.36523 28.861328 L 588.19531 28.861328 L 588.19531 97.523438 L 597.15625 97.523438 L 597.15625 55.482422 C 597.94697 52.670952 599.22135 50.079206 600.97852 47.707031 C 602.73568 45.247001 604.71174 43.138026 606.9082 41.380859 C 609.19252 39.623693 611.65331 38.261361 614.28906 37.294922 C 616.92481 36.328474 619.55956 35.845703 622.19531 35.845703 C 627.20324 35.845703 630.89347 37.690806 633.26562 41.380859 C 635.72566 45.070913 636.95508 51.001057 636.95508 59.171875 L 636.95508 97.523438 L 645.91797 97.523438 L 645.91797 57.328125 C 645.91797 52.847352 645.56618 48.762319 644.86328 45.072266 C 644.16042 41.38222 643.01896 38.262738 641.4375 35.714844 C 639.85605 33.166949 637.74708 31.18893 635.11133 29.783203 C 632.47558 28.377468 629.26814 27.675781 625.49023 27.675781 z M 354.14062 28.466797 C 349.22058 28.466797 344.6078 29.960084 340.30273 32.947266 C 335.99767 35.934448 332.57132 40.062484 330.02344 45.333984 L 330.02344 28.861328 L 321.58984 28.861328 L 321.58984 97.523438 L 330.55078 97.523438 L 330.55078 54.824219 C 332.3958 49.289142 335.55828 44.940246 340.03906 41.777344 C 344.51984 38.614475 349.79129 36.945276 355.85352 36.769531 L 355.85352 28.597656 C 355.41425 28.509825 354.84352 28.466797 354.14062 28.466797 z M 496.20703 28.466797 C 491.28697 28.466797 486.6742 29.960084 482.36914 32.947266 C 478.06408 35.934448 474.63774 40.062484 472.08984 45.333984 L 472.08984 28.861328 L 463.65625 28.861328 L 463.65625 97.523438 L 472.61719 97.523438 L 472.61719 54.824219 C 474.46221 49.289142 477.6247 44.940246 482.10547 41.777344 C 486.58625 38.614475 491.8577 36.945276 497.91992 36.769531 L 497.91992 28.597656 C 497.48066 28.509825 496.90993 28.466797 496.20703 28.466797 z M 173.19727 28.861328 L 173.19727 97.523438 L 182.1582 97.523438 L 182.1582 28.861328 L 173.19727 28.861328 z M 509.25391 28.861328 L 509.25391 69.1875 C 509.25391 79.027638 511.05406 86.453013 514.65625 91.460938 C 518.3463 96.381004 523.92658 98.839844 531.39453 98.839844 C 537.19318 98.839844 542.64055 97.391512 547.73633 94.492188 C 552.91997 91.505006 557.00501 87.332021 559.99219 81.972656 L 559.99219 89.878906 C 559.99219 92.251081 560.65087 94.14114 561.96875 95.546875 C 563.28662 96.952635 565.00078 97.699278 567.10938 97.787109 L 568.42578 97.787109 C 569.12865 97.787109 570.0082 97.69918 571.0625 97.523438 L 571.0625 89.615234 C 568.9539 89.615234 567.89844 88.38582 567.89844 85.925781 L 567.89844 28.861328 L 558.9375 28.861328 L 558.9375 72.087891 C 557.8832 74.987217 556.47787 77.578971 554.7207 79.863281 C 553.05139 82.1476 551.11831 84.123658 548.92188 85.792969 C 546.81328 87.46228 544.48539 88.736651 541.9375 89.615234 C 539.38961 90.493818 536.79786 90.933594 534.16211 90.933594 C 523.53125 90.933594 518.21484 83.158348 518.21484 67.607422 L 518.21484 28.861328 L 509.25391 28.861328 z M 0 36.072266 L 0 62.675781 L 124.14648 62.675781 L 124.14648 36.072266 L 0 36.072266 z M 110.8457 42.722656 C 112.69312 42.722656 114.26345 43.368916 115.55664 44.662109 C 116.84983 45.955297 117.49609 47.525626 117.49609 49.373047 C 117.49609 51.22046 116.84983 52.790794 115.55664 54.083984 C 114.26345 55.377175 112.69312 56.025391 110.8457 56.025391 C 108.99829 56.025391 107.42796 55.377175 106.13477 54.083984 C 104.84158 52.790794 104.19336 51.22046 104.19336 49.373047 C 104.19336 47.525626 104.84158 45.955297 106.13477 44.662109 C 107.42796 43.368916 108.99829 42.722656 110.8457 42.722656 z M 8.8671875 44.939453 L 79.808594 44.939453 L 79.808594 53.808594 L 8.8671875 53.808594 L 8.8671875 44.939453 z M 391.30469 62.466797 C 394.6433 62.466797 397.89374 62.775642 401.05664 63.390625 C 404.3074 64.005633 407.42688 64.883231 410.41406 66.025391 L 410.41406 77.226562 C 410.41406 78.01729 410.19323 78.896842 409.75391 79.863281 C 409.40247 80.741865 408.83174 81.57646 408.04102 82.367188 C 406.02027 85.266512 403.03371 87.594398 399.08008 89.351562 C 395.21431 91.108729 390.95335 91.988281 386.29688 91.988281 C 384.01256 91.988281 381.86058 91.591509 379.83984 90.800781 C 377.8191 90.010062 376.06195 88.956551 374.56836 87.638672 C 373.16262 86.232937 372.01921 84.606741 371.14062 82.761719 C 370.34992 80.916696 369.95508 78.94063 369.95508 76.832031 C 369.95508 72.52697 371.93114 69.057625 375.88477 66.421875 C 379.83839 63.786125 384.97888 62.466797 391.30469 62.466797 z M 0 71.542969 L 0 98.146484 L 124.14648 98.146484 L 124.14648 71.542969 L 0 71.542969 z M 110.8457 78.193359 C 112.69312 78.193359 114.26345 78.839626 115.55664 80.132812 C 116.84983 81.426003 117.49609 82.996335 117.49609 84.84375 C 117.49609 86.691168 116.84983 88.261499 115.55664 89.554688 C 114.26345 90.847881 112.69312 91.494141 110.8457 91.494141 C 108.99829 91.494141 107.42796 90.847881 106.13477 89.554688 C 104.84158 88.261499 104.19336 86.691168 104.19336 84.84375 C 104.19336 82.996335 104.84158 81.426003 106.13477 80.132812 C 107.42796 78.839626 108.99829 78.193359 110.8457 78.193359 z M 8.8671875 80.410156 L 79.808594 80.410156 L 79.808594 89.277344 L 8.8671875 89.277344 L 8.8671875 80.410156 z M 437.42969 84.607422 L 437.42969 97.523438 L 445.20508 97.523438 L 445.20508 84.607422 L 437.42969 84.607422 z "
       transform="matrix(0.26458333,0,0,0.26458333,23.644788,47.748871)" />
    <g
       aria-label="infra.run"
       transform="matrix(3.2946982,0,0,3.2946982,-102.62283,-95.522516)"
       id="text837"
       style="font-style:normal;font-variant:normal;font-weight:normal;font-stretch:normal;font-size:10.5833px;line-height:125%;font-family:'Source Sans Pro';-inkscape-font-specification:'Source Sans Pro';letter-spacing:0px;word-spacing:0px;white-space:pre;inline-size:86.3498;fill:#000000;fill-opacity:1;stroke:none;stroke-width:0.264583px;stroke-linecap:butt;stroke-linejoin:miter;stroke-opacity:1" />
  </g>
</svg>
